HIERARCHY
ROOT reference
{
  OFFSET 0 0 0
  CHANNELS 6 Xposition Yposition Zposition Zrotation Xrotation Yrotation
  JOINT Hips
  {
    OFFSET 340.57 87.5694 214.797
    CHANNELS 3 Zrotation Xrotation Yrotation
    JOINT RightUpLeg
    {
      OFFSET -9.35418 -1.55218 -0.019184
      CHANNELS 3 Zrotation Xrotation Yrotation
      JOINT RightLeg
      {
        OFFSET -0.0482219 -41.8948 0.0725956
        CHANNELS 3 Zrotation Xrotation Yrotation
        JOINT RightFoot
        {
          OFFSET -1.00159 -42.3965 -1.97064
          CHANNELS 3 Zrotation Xrotation Yrotation
          End Site
          {
            OFFSET 0 -7.69 17.5
          }
        }
      }
    }
    JOINT LeftUpLeg
    {
      OFFSET 9.33628 -1.64535 -0.0795185
      CHANNELS 3 Zrotation Xrotation Yrotation
      JOINT LeftLeg
      {
        OFFSET 0.124871 -41.8725 -0.08325
        CHANNELS 3 Zrotation Xrotation Yrotation
        JOINT LeftFoot
        {
          OFFSET 0.728222 -40.8097 2.1196
          CHANNELS 3 Zrotation Xrotation Yrotation
          End Site
          {
            OFFSET 0 -7.69 17.5
          }
        }
      }
    }
    JOINT Spine
    {
      OFFSET -0.0135102 14.2943 0.0647361
      CHANNELS 3 Zrotation Xrotation Yrotation
      JOINT Spine1
      {
        OFFSET 0.0181502 9.72385 0.0148045
        CHANNELS 3 Zrotation Xrotation Yrotation
        JOINT Spine2
        {
          OFFSET 0.0557859 10.1166 -0.00979693
          CHANNELS 3 Zrotation Xrotation Yrotation
          JOINT Spine3
          {
            OFFSET 0.0359868 9.71757 0.00306838
            CHANNELS 3 Zrotation Xrotation Yrotation
            JOINT Neck
            {
              OFFSET 0.139197 10.3803 0.0501204
              CHANNELS 3 Zrotation Xrotation Yrotation
              JOINT Head
              {
                OFFSET 0.148012 9.47645 -0.000545472
                CHANNELS 3 Zrotation Xrotation Yrotation
                End Site
                {
                  OFFSET 0 15.95 0
                }
              }
            }
            JOINT RightShoulder
            {
              OFFSET -3.16276 6.92807 0.0312834
              CHANNELS 3 Zrotation Xrotation Yrotation
              JOINT RightArm
              {
                OFFSET -12.7681 0.0492996 0.0890957
                CHANNELS 3 Zrotation Xrotation Yrotation
                JOINT RightForeArm
                {
                  OFFSET -26.4761 -0.090776 0.147076
                  CHANNELS 3 Zrotation Xrotation Yrotation
                  JOINT RightHand
                  {
                    OFFSET -25.9655 0.0607057 -0.248467
                    CHANNELS 3 Zrotation Xrotation Yrotation
                    JOINT RightHandThumb1
                    {
                      OFFSET -2.48905 0.190105 3.12053
                      CHANNELS 3 Zrotation Xrotation Yrotation
                      JOINT RightHandThumb2
                      {
                        OFFSET -3.68274 0 0
                        CHANNELS 3 Zrotation Xrotation Yrotation
                        JOINT RightHandThumb3
                        {
                          OFFSET -2.55832 0 0
                          CHANNELS 3 Zrotation Xrotation Yrotation
                          End Site
                          {
                            OFFSET -2.194 0 0
                          }
                        }
                      }
                    }
                    JOINT RightInHandIndex
                    {
                      OFFSET -3.22368 0.508421 1.97842
                      CHANNELS 3 Zrotation Xrotation Yrotation
                      JOINT RightHandIndex1
                      {
                        OFFSET -5.21684 -0.091368 0.999158
                        CHANNELS 3 Zrotation Xrotation Yrotation
                        JOINT RightHandIndex2
                        {
                          OFFSET -3.61937 0 0
                          CHANNELS 3 Zrotation Xrotation Yrotation
                          JOINT RightHandIndex3
                          {
                            OFFSET -2.0521 0 0
                            CHANNELS 3 Zrotation Xrotation Yrotation
                            End Site
                            {
                              OFFSET -1.805 0 0
                            }
                          }
                        }
                      }
                    }
                    JOINT RightInHandMiddle
                    {
                      OFFSET -3.38211 0.517263 0.756737
                      CHANNELS 3 Zrotation Xrotation Yrotation
                      JOINT RightHandMiddle1
                      {
                        OFFSET -5.17411 -0.084 0.313895
                        CHANNELS 3 Zrotation Xrotation Yrotation
                        JOINT RightHandMiddle2
                        {
                          OFFSET -3.94947 0 0
                          CHANNELS 3 Zrotation Xrotation Yrotation
                          JOINT RightHandMiddle3
                          {
                            OFFSET -2.47579 0 0
                            CHANNELS 3 Zrotation Xrotation Yrotation
                            End Site
                            {
                              OFFSET -1.975 0 0
                            }
                          }
                        }
                      }
                    }
                    JOINT RightInHandRing
                    {
                      OFFSET -3.36516 0.537895 -0.128947
                      CHANNELS 3 Zrotation Xrotation Yrotation
                      JOINT RightHandRing1
                      {
                        OFFSET -4.63474 -0.022105 -0.478947
                        CHANNELS 3 Zrotation Xrotation Yrotation
                        JOINT RightHandRing2
                        {
                          OFFSET -3.44238 0 0
                          CHANNELS 3 Zrotation Xrotation Yrotation
                          JOINT RightHandRing3
                          {
                            OFFSET -2.3881 0 0
                            CHANNELS 3 Zrotation Xrotation Yrotation
                            End Site
                            {
                              OFFSET -1.857 0 0
                            }
                          }
                        }
                      }
                    }
                    JOINT RightInHandPinky
                    {
                      OFFSET -3.16105 0.469368 -1.20179
                      CHANNELS 3 Zrotation Xrotation Yrotation
                      JOINT RightHandPinky1
                      {
                        OFFSET -4.14105 -0.022105 -1.09053
                        CHANNELS 3 Zrotation Xrotation Yrotation
                        JOINT RightHandPinky2
                        {
                          OFFSET -2.75653 0 0
                          CHANNELS 3 Zrotation Xrotation Yrotation
                          JOINT RightHandPinky3
                          {
                            OFFSET -1.74189 0 0
                            CHANNELS 3 Zrotation Xrotation Yrotation
                            End Site
                            {
                              OFFSET -1.645 0 0
                            }
                          }
                        }
                      }
                    }
                  }
                }
              }
            }
            JOINT LeftShoulder
            {
              OFFSET 3.20588 6.97332 0.0254387
              CHANNELS 3 Zrotation Xrotation Yrotation
              JOINT LeftArm
              {
                OFFSET 12.8648 0.0341024 0.0247643
                CHANNELS 3 Zrotation Xrotation Yrotation
                JOINT LeftForeArm
                {
                  OFFSET 26.5059 -0.0470976 -0.0807017
                  CHANNELS 3 Zrotation Xrotation Yrotation
                  JOINT LeftHand
                  {
                    OFFSET 26.0013 -0.0100885 -0.0649647
                    CHANNELS 3 Zrotation Xrotation Yrotation
                    JOINT LeftHandThumb1
                    {
                      OFFSET 2.48905 0.190105 3.12053
                      CHANNELS 3 Zrotation Xrotation Yrotation
                      JOINT LeftHandThumb2
                      {
                        OFFSET 3.68274 0 0
                        CHANNELS 3 Zrotation Xrotation Yrotation
                        JOINT LeftHandThumb3
                        {
                          OFFSET 2.55832 0 0
                          CHANNELS 3 Zrotation Xrotation Yrotation
                          End Site
                          {
                            OFFSET 2.194 0 0
                          }
                        }
                      }
                    }
                    JOINT LeftInHandIndex
                    {
                      OFFSET 3.22368 0.508421 1.97842
                      CHANNELS 3 Zrotation Xrotation Yrotation
                      JOINT LeftHandIndex1
                      {
                        OFFSET 5.21684 -0.091368 0.999158
                        CHANNELS 3 Zrotation Xrotation Yrotation
                        JOINT LeftHandIndex2
                        {
                          OFFSET 3.61937 0 0
                          CHANNELS 3 Zrotation Xrotation Yrotation
                          JOINT LeftHandIndex3
                          {
                            OFFSET 2.0521 0 0
                            CHANNELS 3 Zrotation Xrotation Yrotation
                            End Site
                            {
                              OFFSET 1.805 0 0
                            }
                          }
                        }
                      }
                    }
                    JOINT LeftInHandMiddle
                    {
                      OFFSET 3.38211 0.517263 0.756737
                      CHANNELS 3 Zrotation Xrotation Yrotation
                      JOINT LeftHandMiddle1
                      {
                        OFFSET 5.17411 -0.084 0.313895
                        CHANNELS 3 Zrotation Xrotation Yrotation
                        JOINT LeftHandMiddle2
                        {
                          OFFSET 3.94947 0 0
                          CHANNELS 3 Zrotation Xrotation Yrotation
                          JOINT LeftHandMiddle3
                          {
                            OFFSET 2.47579 0 0
                            CHANNELS 3 Zrotation Xrotation Yrotation
                            End Site
                            {
                              OFFSET 1.975 0 0
                            }
                          }
                        }
                      }
                    }
                    JOINT LeftInHandRing
                    {
                      OFFSET 3.36516 0.537895 -0.128947
                      CHANNELS 3 Zrotation Xrotation Yrotation
                      JOINT LeftHandRing1
                      {
                        OFFSET 4.63474 -0.022105 -0.478947
                        CHANNELS 3 Zrotation Xrotation Yrotation
                        JOINT LeftHandRing2
                        {
                          OFFSET 3.44238 0 0
                          CHANNELS 3 Zrotation Xrotation Yrotation
                          JOINT LeftHandRing3
                          {
                            OFFSET 2.3881 0 0
                            CHANNELS 3 Zrotation Xrotation Yrotation
                            End Site
                            {
                              OFFSET 1.857 0 0
                            }
                          }
                        }
                      }
                    }
                    JOINT LeftInHandPinky
                    {
                      OFFSET 3.16105 0.469368 -1.20179
                      CHANNELS 3 Zrotation Xrotation Yrotation
                      JOINT LeftHandPinky1
                      {
                        OFFSET 4.14105 -0.022105 -1.09053
                        CHANNELS 3 Zrotation Xrotation Yrotation
                        JOINT LeftHandPinky2
                        {
                          OFFSET 2.75653 0 0
                          CHANNELS 3 Zrotation Xrotation Yrotation
                          JOINT LeftHandPinky3
                          {
                            OFFSET 1.74189 0 0
                            CHANNELS 3 Zrotation Xrotation Yrotation
                            End Site
                            {
                              OFFSET 1.645 0 0
                            }
                          }
                        }
                      }
                    }
                  }
                }
              }
            }
          }
        }
      }
    }
  }
}
MOTION
Frames: 2
Frame Time: 0.00833333
6.000000000000000000e+02 0.000000000000000000e+00 0.000000000000000000e+00 0.000000000000000000e+00 0.000000000000000000e+00 0.000000000000000000e+00 4.759368448945023450e-02 -3.337013341251530985e-02 -4.979676085152397458e-01 3.899264573886316310e-01 8.194964646405275555e-03 -3.677022316475042629e-02 -2.485690091017432879e-01 -2.861321926830481810e-01 6.205183740347994803e-01 4.255810100041003685e-01 2.870534895199608472e-02 1.222477238858971360e-01 -5.575219258671091499e-02 -9.066952896736865664e-02 8.622865408728438430e-01 3.889192170277474547e-01 4.362383606748341247e-01 -4.106183799636337617e-01 5.709100958915338531e-01 3.073282302133608090e-01 1.963855304563414672e-01 -8.181584844343831042e-02 -9.605859129677561670e-03 -4.965234031698476103e-03 -1.794664140010630154e-02 -9.958589854902047053e-03 6.336976586470144390e-04 -3.063121641026775657e-02 -2.152748183431877141e-02 1.678454314777047540e-03 1.116625504115366499e-04 -2.935188363774583753e-02 2.184234205305476267e-02 -9.587320725277421324e-03 -1.838991469790908773e-01 7.231081413933309054e-01 1.944015099834810884e-03 -3.202954443965966291e-02 -3.217645338463322457e-01 1.967722978639813158e-03 4.902204385186719610e-02 -3.565405221085046761e-01 -1.333082157931904765e+00 9.431280204090847219e-01 -1.446160287245604470e-01 -1.604372285793148167e+00 -2.445909022941712696e-01 -1.192900930166962636e+00 -7.270800882447890634e-02 -8.731004227766094028e-02 -1.947640842152742913e+00 0.000000000000000000e+00 0.000000000000000000e+00 0.000000000000000000e+00 6.120904942591968582e-16 8.966024143832276951e-16 0.000000000000000000e+00 -3.307814999824696066e-15 1.139110595455567544e-15 0.000000000000000000e+00 7.786658142907890528e-16 -5.793167857176065524e-16 1.441154837159066224e-15 0.000000000000000000e+00 0.000000000000000000e+00 0.000000000000000000e+00 0.000000000000000000e+00 -2.106945535821085149e-15 -7.020592438014322235e-15 0.000000000000000000e+00 -6.695804409458899256e-16 -3.190060655036766729e-15 7.786658142907890528e-16 -5.793167857176065524e-16 1.441154837159066224e-15 0.000000000000000000e+00 7.746402806225754852e-19 -2.653953061186876834e-16 0.000000000000000000e+00 -2.050017068788123345e-15 -8.186154231130987450e-15 0.000000000000000000e+00 -2.280822677452733194e-15 -2.091845246582157900e-15 7.786658142907890528e-16 -5.793167857176065524e-16 1.441154837159066224e-15 0.000000000000000000e+00 0.000000000000000000e+00 0.000000000000000000e+00 0.000000000000000000e+00 1.001057242128191656e-16 -5.540197532469061296e-15 0.000000000000000000e+00 -2.497682788271089725e-15 -6.905192962520299318e-15 7.786658142907890528e-16 -5.793167857176065524e-16 1.441154837159066224e-15 0.000000000000000000e+00 0.000000000000000000e+00 0.000000000000000000e+00 0.000000000000000000e+00 4.831110176474988349e-16 -7.149124022937340702e-15 0.000000000000000000e+00 1.234985409597293228e-15 -4.743888467774534382e-15 -1.509712299308197392e-01 2.114459831972773374e-01 4.756675118045364803e-01 -7.857052225278803315e-01 -3.429443250596107551e-01 1.253013427054097573e+00 -8.604272000702928302e-01 -3.507068328694401549e-01 -1.539404888734385413e+00 1.906459090446388505e-01 -8.077525740346198635e-01 -3.310929049055726381e-01 0.000000000000000000e+00 0.000000000000000000e+00 0.000000000000000000e+00 1.401620976006722502e-15 -4.583563724181315020e-16 0.000000000000000000e+00 -2.300486231296128369e-15 2.557721374610728920e-15 0.000000000000000000e+00 -2.406218485331025123e-16 -1.129221926321520580e-15 7.867956316163737105e-17 0.000000000000000000e+00 0.000000000000000000e+00 0.000000000000000000e+00 0.000000000000000000e+00 -2.048743342732401210e-15 1.713938312555829765e-15 0.000000000000000000e+00 -5.968548432427179570e-17 -3.284158463805734782e-15 -2.406218485331025123e-16 -1.129221926321520580e-15 7.867956316163737105e-17 0.000000000000000000e+00 3.260215550683252906e-15 -2.068631440868686517e-16 0.000000000000000000e+00 2.359411649163791972e-15 1.550010085000697255e-15 0.000000000000000000e+00 1.253652573675755664e-15 -4.427262550903228001e-15 -2.406218485331025123e-16 -1.129221926321520580e-15 7.867956316163737105e-17 0.000000000000000000e+00 0.000000000000000000e+00 0.000000000000000000e+00 0.000000000000000000e+00 7.052785983993202169e-16 1.523983451949646589e-15 0.000000000000000000e+00 8.347934544260905485e-16 -5.658527218506129149e-15 -2.406218485331025123e-16 -1.129221926321520580e-15 7.867956316163737105e-17 0.000000000000000000e+00 0.000000000000000000e+00 0.000000000000000000e+00 0.000000000000000000e+00 -7.255050025203006866e-16 3.490845562362128734e-15 0.000000000000000000e+00 5.240712756540964651e-16 -3.423035380680499172e-15
6.000000000000000000e+02 0.000000000000000000e+00 0.000000000000000000e+00 0.000000000000000000e+00 0.000000000000000000e+00 0.000000000000000000e+00 6.773684251294002923e-02 -6.032964636914658896e-02 -4.857718875522343827e-01 3.902091411786426933e-01 1.865869801774371756e-02 1.648783835389327213e-01 -1.839775281093462000e-01 -2.707480106741905757e-01 4.329519866933930761e-01 4.091845193083903376e-01 2.291223664449587930e-02 1.080902567652632096e-01 -6.324225929565785442e-02 -5.509890384923399331e-02 8.948692874159673849e-01 3.408975033286963940e-01 3.705180520234760411e-01 -3.905504389964588596e-01 4.971977737791191121e-01 2.997782210718841767e-01 9.852338144206683468e-02 -1.337853288673051810e-01 -2.952874892496581277e-02 8.907404045210366716e-02 -2.981286801560575905e-02 -9.099184980203353992e-03 2.288935955640886838e-02 -4.965106947033013501e-02 -1.862727465062504265e-02 3.567169086193868605e-02 4.454530780159703281e-03 -2.680920855870862901e-02 1.325663217854783013e-02 6.759674945257683996e-03 -1.540656259988019972e-01 6.153191747278268231e-01 8.000278223498323571e-02 -5.658306655790402984e-02 -3.718410850750504815e-01 -5.017548914559119555e-02 5.120244339841333037e-02 -1.465736923795942226e-01 -1.249039017425672027e+00 6.805283149824628008e-01 -1.049903224538735608e-01 -1.261479781126153998e+00 -2.774677324838056847e-01 -1.033659972128042615e+00 9.255326502338583061e-02 -8.437182516610848559e-02 -1.454698194792523935e+00 0.000000000000000000e+00 0.000000000000000000e+00 0.000000000000000000e+00 1.161978652930493866e-16 1.373158036133519728e-15 0.000000000000000000e+00 -3.120015126488132704e-15 1.197720330018503132e-15 0.000000000000000000e+00 4.336814520028783103e-16 -4.012423405223324753e-16 4.434583038192627481e-16 0.000000000000000000e+00 0.000000000000000000e+00 0.000000000000000000e+00 0.000000000000000000e+00 -1.872759853116044863e-15 -8.452858468416380011e-15 0.000000000000000000e+00 -1.547087458175432690e-15 -3.611317492874756790e-15 4.336814520028783103e-16 -4.012423405223324753e-16 4.434583038192627481e-16 0.000000000000000000e+00 3.059323174017709417e-16 -1.960232635406330935e-16 0.000000000000000000e+00 -1.933262780319075771e-15 -9.318106472953580534e-15 0.000000000000000000e+00 -2.622291398375521617e-15 -1.672729322572742235e-15 4.336814520028783103e-16 -4.012423405223324753e-16 4.434583038192627481e-16 0.000000000000000000e+00 0.000000000000000000e+00 0.000000000000000000e+00 0.000000000000000000e+00 -9.276961950883808816e-17 -4.663105664224833866e-15 0.000000000000000000e+00 -2.350244045956204894e-15 -7.353355024610813251e-15 4.336814520028783103e-16 -4.012423405223324753e-16 4.434583038192627481e-16 0.000000000000000000e+00 0.000000000000000000e+00 0.000000000000000000e+00 0.000000000000000000e+00 3.245292104653320521e-16 -5.707749911209801545e-15 0.000000000000000000e+00 9.743712000189392441e-16 -5.486448257571424017e-15 -1.427352586331209205e-01 1.724487267216663067e-01 4.237697507836401534e-01 -7.157807379266591941e-01 -2.873718508447935527e-01 1.103638838843608028e+00 -8.516035167373937620e-01 -3.517561377344403939e-02 -1.560961026243427252e+00 3.546370290102904832e-01 -1.313179061481809518e+00 -1.599074903110367374e-01 0.000000000000000000e+00 0.000000000000000000e+00 0.000000000000000000e+00 4.760422816222838967e-16 2.754692043981748231e-16 0.000000000000000000e+00 -2.538085854973601704e-15 2.158622188957179092e-15 0.000000000000000000e+00 -2.198275726389910930e-17 -1.092949757386260245e-15 3.773242598906354874e-16 0.000000000000000000e+00 0.000000000000000000e+00 0.000000000000000000e+00 0.000000000000000000e+00 -1.551133420383277338e-15 1.256168185797475848e-15 0.000000000000000000e+00 8.371114260004174979e-17 -3.836608265298654213e-15 -2.198275726389910930e-17 -1.092949757386260245e-15 3.773242598906354874e-16 0.000000000000000000e+00 2.886130462944542583e-15 -8.996148828109877507e-17 0.000000000000000000e+00 1.887508682281674085e-15 2.166873897428853556e-15 0.000000000000000000e+00 9.869411235600308698e-16 -4.108613513200066009e-15 -2.198275726389910930e-17 -1.092949757386260245e-15 3.773242598906354874e-16 0.000000000000000000e+00 0.000000000000000000e+00 0.000000000000000000e+00 0.000000000000000000e+00 2.526026837831321704e-16 4.197107496443532365e-16 0.000000000000000000e+00 9.108483975147584953e-16 -6.136970110026224091e-15 -2.198275726389910930e-17 -1.092949757386260245e-15 3.773242598906354874e-16 0.000000000000000000e+00 0.000000000000000000e+00 0.000000000000000000e+00 0.000000000000000000e+00 -3.993536686373662930e-16 2.604326542601758412e-15 0.000000000000000000e+00 5.190496749369319340e-16 -2.538030961236592491e-15
